<svg xmlns="http://www.w3.org/2000/svg" viewBox="0 0 60 60" version="1.0"><path style="stroke-linejoin:round;color:#000;display:block;stroke:#fff;stroke-linecap:round;stroke-width:7.1343;fill:none" d="M11.75 54.375V5.625h27.688l8.812 8.813v39.937h-36.5z" transform="translate(-1.538 -1.538) scale(1.0513)"/><path style="stroke-linejoin:round;color:#000;display:block;stroke:#000;stroke-linecap:round;stroke-width:2.3781;fill:#fff" d="M11.75 54.375V5.625h27.688l8.812 8.813v39.937h-36.5z" transform="translate(-1.538 -1.538) scale(1.0513)"/><path style="stroke-linejoin:round;color:#000;display:block;stroke:#000;stroke-linecap:round;stroke-width:2.3781;fill:#000" d="M39.437 14.438V5.625l8.813 8.813h-8.813z" transform="translate(-1.538 -1.538) scale(1.0513)"/><path style="stroke-linejoin:round;stroke:#000;stroke-linecap:round;stroke-width:2.5;fill:none" d="M17.052 10.931h8.685M37.151 47.316h5.797"/><g style="stroke:#000"><path style="stroke-linejoin:round;stroke:#000;stroke-linecap:round;stroke-width:3.9739;fill:none" d="M17.052 22.068h28.899M17.052 27.13h20.826M17.052 32.192h33.477M17.052 42.316h17.797M17.052 37.254h30.95" transform="matrix(.39577 0 0 1 10.303 0)"/></g><path style="stroke-linejoin:round;stroke:#000;stroke-linecap:round;stroke-width:2.5;fill:none" d="M37.151 42.316h5.797M37.151 37.316h5.797M37.151 32.316h5.797M37.151 27.316h5.797M37.151 22.316h5.797"/></svg>